<svg xmlns="http://www.w3.org/2000/svg" xmlns:xlink="http://www.w3.org/1999/xlink" width="64" height="360" viewBox="0 0 64 360"><svg width="64" height="64" viewBox="0 0 64 64"><path fill="#f7fbff" d="M32 4c15.464 0 28 12.536 28 28S47.464 60 32 60 4 47.464 4 32 16.536 4 32 4z"/><path fill="#007afa" d="M39.26 19.556h.518c.286 0 .518.232.518.518v4.666a.518.518 0 0 1-.518.518h-.518a.518.518 0 0 1-.518-.518v-4.666a.516.516 0 0 1 .518-.518z"/><path fill="#d2e8fe" d="M20.074 42.888h6.222v3.63h-6.222v-3.63zM28.888 39.778h4.666c.286 0 .518.232.518.518v6.222a.518.518 0 0 1-.518.518h-4.666a.518.518 0 0 1-.518-.518v-6.222c0-.286.232-.518.518-.518zM36.148 42.888h6.222v3.902h-6.222v-3.902z"/><path fill="#007afa" d="M16.786 31.488c-.294 0-.588-.13-.786-.378a1.001 1.001 0 0 1 .164-1.406L30.856 18.07a1 1 0 0 1 1.242 0l14.694 11.634a1 1 0 0 1 .162 1.406 1 1 0 0 1-1.404.164L31.478 20.132l-14.07 11.142a1.015 1.015 0 0 1-.622.214zM35.63 48.408h-8.814c-.836 0-1.518-.7-1.518-1.558v-11.7c0-.86.682-1.558 1.518-1.558h8.814c.836 0 1.518.7 1.518 1.558v11.7c0 .858-.682 1.558-1.518 1.558zm-8.332-2h7.85V35.592h-7.85v10.816z"/><path fill="#007afa" d="M40.95 48.55H21.508a2.95 2.95 0 0 1-2.944-2.952V27.854h2V45.6c0 .526.424.952.944.952H40.95c.52 0 .944-.426.944-.952V27.856h2V45.6a2.953 2.953 0 0 1-2.944 2.95z"/></svg><svg width="64" height="64" viewBox="0 0 64 64" y="74"><path fill="#f7fbff" d="M32 4c15.464 0 28 12.536 28 28S47.464 60 32 60 4 47.464 4 32 16.536 4 32 4z"/><path fill="#d2e8fe" d="M35.762 21.626c-3.124-2.622-4.258-2.546-4.798-2.452-.468 0-1.346-.614-4.85 2.392s-2.992 12.988-2.992 12.988c.504.852 3.562 2.042 4.488 1.91.928-.132 1.122-1.146 1.122-1.146l4.368-.006s.198 1.01 1.142 1.14c.944.132 4.054-1.052 4.566-1.902-.002.002.518-9.934-3.046-12.924z"/><path fill="#007afa" d="M26.334 40.218c-1.67 0-5.69-1.55-6.558-3.018a.979.979 0 0 1-.138-.458c-.028-.556-.642-13.682 4.288-17.91.524-.448.996-.828 1.436-1.162a27.154 27.154 0 0 1 1.058-.754c1.546-1.042 2.77-1.53 3.84-1.53.234 0 .424.022.584.042.122 0 .332-.028.592-.028.992 0 2.742.364 6.486 3.506 4.842 4.06 4.43 16.418 4.368 17.812a1.066 1.066 0 0 1-.144.488c-.936 1.548-5.14 2.998-6.654 2.998-.126 0-.246-.008-.35-.024-1.066-.148-1.71-.834-2.056-1.492l-4.366.008c-.34.658-.978 1.348-2.032 1.498a2.403 2.403 0 0 1-.354.024zm-4.714-3.892c.702.664 3.534 1.892 4.712 1.892l.07-.004c.492-.07.636-.694.642-.72.102-.458.51-.796.978-.796l5.748-.008h.002c.478 0 .888.338.98.806.014.052.16.634.662.706h.006c1.272 0 4.158-1.22 4.88-1.882.176-4.76-.404-13.144-3.666-15.88-3.494-2.934-4.934-3.112-5.502-3.008a2.758 2.758 0 0 1-.542-.016c-.536-.072-1.642.208-3.062 1.166l-.954.68c-.42.32-.862.672-1.35 1.092-3.378 2.896-3.752 12.22-3.604 15.972z"/><path fill="#007afa" d="M30.962 38.704c-.146 0-3.562-.036-6-2.716-1.85-2.034-2.608-4.976-2.252-8.748a1 1 0 0 1 .414-.72c.188-.134 4.69-3.298 11.99-3.298.414 0 .786.256.934.642.014.038 1.438 3.728 2.924 5.396.224.252.306.6.218.924-.094.35-2.36 8.52-8.228 8.52zm-6.3-10.796c-.198 2.94.394 5.196 1.764 6.714 1.814 2.012 4.464 2.078 4.542 2.08 3.66-.004 5.612-4.972 6.14-6.558-1.176-1.526-2.202-3.802-2.666-4.914-5.126.154-8.664 2.01-9.78 2.678z"/><path fill="#fff" d="M24.774 27.872s3.7-2.65 9.716-2.65c0 0 1.262 3.3 2.65 4.858 0 0-1.78 6.624-6.182 6.624 0 0-7.014-.008-6.184-8.832zM37.704 39.418c.702-.818 5.186 1.388 5.186 3.57v4.592s-.068 1.53-1.556 1.53H30.446h-10.37c-1.488 0-1.556-1.556-1.556-1.556v-4.666c0-2.218 4.484-4.46 5.186-3.63z"/><path fill="#007afa" d="M41.334 50.112h-21.26c-1.792 0-2.51-1.502-2.554-2.514V42.89c0-2.154 2.606-3.912 4.248-4.512 1.58-.578 2.338-.19 2.702.238l-1.528 1.29c.11.132.234.174.274.18-.366-.054-1.694.44-2.738 1.348-.6.522-.958 1.066-.958 1.458v4.666c.044.556.43.556.556.556h21.26c.126 0 .51 0 .556-.592l-.002-4.53c0-.372-.346-.892-.926-1.394-1.054-.914-2.412-1.404-2.772-1.35a.517.517 0 0 0 .27-.176l-1.516-1.304c.368-.426 1.146-.802 2.748-.212 1.688.624 4.196 2.322 4.196 4.438v4.59c-.046 1.04-.764 2.528-2.556 2.528z"/><path fill="#007afa" d="M37.444 44.444c.43 0 .778.348.778.778v3.63a.778.778 0 1 1-1.556 0v-3.63c0-.43.348-.778.778-.778zM23.964 44.444c.43 0 .778.348.778.778v3.63a.778.778 0 1 1-1.556 0v-3.63c0-.43.348-.778.778-.778z"/></svg><svg width="64" height="64" viewBox="0 0 64 64" y="148"><path fill="#f7fbff" d="M32 4c15.464 0 28 12.536 28 28S47.464 60 32 60 4 47.464 4 32 16.536 4 32 4z"/><path fill="#007afa" d="M38.86 20.008c.274 0 .53.196.672.336l2.11 2.198a2.76 2.76 0 0 1 .786 1.738c.118 1.476-.332 2.934-.68 3.904-.928 2.586-2.328 4.99-4.402 7.566-2.53 3.12-5.57 5.578-9.018 7.3-1.344.658-2.954 1.346-4.664 1.46-.096.004-.198.01-.29.01-.778 0-1.392-.238-1.916-.748l-.008-.016-.154-.16a14.969 14.969 0 0 0-1.1-1.18l-.094-.094a24.704 24.704 0 0 1-.744-.762c-.182-.196-.398-.5-.398-.848 0-.266.128-.532.392-.802l3.42-3.546c.218-.234.428-.352.626-.352.26 0 .512.204.68.378L27.1 39.5l1.34-.744.288-.156.134-.072a9.79 9.79 0 0 0 .792-.444c2.014-1.322 3.834-3.03 5.58-5.246.864-1.126 1.472-2.122 1.914-3.136l.564-1.29-1.024-.966c-.436-.412-.842-.838-1.238-1.252l-.134-.14-.248-.26-.272-.284c-.548-.566-.548-1.07 0-1.636l1.7-1.756c.202-.21.412-.426.586-.618.346-.37.71-.752 1.132-1.156.222-.224.438-.336.646-.336zm0-2c-.754 0-1.472.326-2.072.938-.402.384-.792.792-1.162 1.188-.186.204-.384.408-.576.606l-1.688 1.744c-1.298 1.342-1.298 3.078 0 4.42.174.178.346.364.52.542.458.48.928.978 1.434 1.456-.378.862-.896 1.712-1.67 2.72-1.596 2.024-3.26 3.59-5.09 4.79-.18.114-.39.224-.612.338-.154.082-.316.166-.476.256l-1.954-2.012c-.624-.646-1.354-.984-2.116-.984-.766 0-1.49.344-2.09.99l-3.396 3.52c-.624.638-.952 1.398-.952 2.19 0 .786.322 1.552.934 2.21.266.288.538.562.804.824.39.39.76.754 1.082 1.156.006.012.018.02.024.032.94 1.054 2.14 1.584 3.568 1.584.124 0 .26-.006.39-.012 2.122-.14 4.02-.964 5.442-1.66 3.724-1.858 6.982-4.496 9.692-7.836 2.232-2.772 3.73-5.358 4.732-8.15.408-1.136.94-2.874.792-4.738a4.733 4.733 0 0 0-1.342-2.97l-2.102-2.192-.012-.012c-.62-.612-1.35-.938-2.104-.938z"/><path fill="#c6e1fe" d="M42.298 25.964c.202-1.058.162-2.638-.548-3.308l-1.812-1.906c-.006-.006-.344.782-.35.776-.07-.064.424-.722.35-.776.412 2.676-.018 9.154-5.082 14.24-5.206 5.228-11.61 7.168-14.292 7.822.3.274.56.618.812.906l.094.156c.844.866 1.812.604 2.628.576.108-.004 1.138-.17 1.246-.2 1.766-.498 2.456-.984 3.688-1.594 3.224-1.63 5.568-3.366 7.876-6.218 1.902-2.366 3.584-4.766 4.406-7.124.334-.962.684-1.78.984-3.35z"/></svg><svg width="64" height="64" viewBox="0 0 64 64" y="222"><path fill="#f7fbff" d="M32 4c15.464 0 28 12.536 28 28S47.464 60 32 60 4 47.464 4 32 16.536 4 32 4z"/><path fill="#007afa" d="M23.186 21.112c-.572 0-1.036.464-1.036 1.036v3.63a1.037 1.037 0 0 0 2.072 0v-3.63c0-.572-.464-1.036-1.036-1.036z"/><path fill="#007afa" d="M33.112 18.444v29.184H18.444V18.444h14.668zm.444-2H18c-.86 0-1.556.696-1.556 1.556v30.074c0 .86.696 1.556 1.556 1.556h15.556c.86 0 1.556-.696 1.556-1.556V18c0-.86-.698-1.556-1.556-1.556z"/><path fill="#007afa" d="M28.888 21.112c.572 0 1.038.464 1.038 1.036v3.63a1.038 1.038 0 0 1-2.076 0v-3.63a1.04 1.04 0 0 1 1.038-1.036zM28.888 29.926c.572 0 1.038.464 1.038 1.038v3.63a1.038 1.038 0 1 1-2.076 0v-3.63a1.04 1.04 0 0 1 1.038-1.038z"/><path fill="#d2e8fe" d="M24.116 48.592v-4.31c0-1.904 1.068-3.448 2.386-3.448s2.386 1.544 2.386 3.448v4.31z"/><path fill="#007afa" d="M42.89 44.802a5.244 5.244 0 0 1-5.238-5.238v-.236l5.238-10.476 5.238 10.476v.236a5.242 5.242 0 0 1-5.238 5.238zm-3.23-5.016c.114 1.684 1.52 3.018 3.23 3.018s3.118-1.334 3.23-3.018l-3.23-6.46-3.23 6.46z"/><path fill="#d2e8fe" d="M45.716 39.402c0 1.466-1.246 2.656-2.782 2.656s-2.782-1.188-2.782-2.656z"/><path fill="#d2e8fe" d="M42.89 34.07l-2.796 5.526h5.592L42.89 34.07z"/><path fill="#007afa" d="M42.888 41.624c-.938 0-1.7-.762-1.7-1.698s.762-1.698 1.7-1.698c.936 0 1.698.762 1.698 1.698s-.762 1.698-1.698 1.698zm0-2.396a.7.7 0 1 0 0 0z"/><path fill="#007afa" d="M42.89 41.124c.318 0 .574.258.574.574v6.32a.574.574 0 0 1-1.148 0v-6.32a.573.573 0 0 1 .574-.574z"/><path fill="#007afa" d="M13.852 47.556h34.74a1.037 1.037 0 0 1 0 2.072h-34.74c-.572 0-1.038-.464-1.038-1.036s.466-1.036 1.038-1.036z"/><path fill="#007afa" d="M30.334 48.592h-2v-5.186c0-1.522-.67-3.148-2.556-3.148-1.834 0-2.486 1.626-2.486 3.148v5.186h-2v-5.186c0-3.08 1.802-5.148 4.486-5.148 2.682 0 4.556 2.118 4.556 5.148v5.186z"/></svg></svg>